<svg width="14" height="14" viewBox="0 0 14 14" fill="none" xmlns="http://www.w3.org/2000/svg">
<path fill-rule="evenodd" clip-rule="evenodd" d="M13.2524 12.4338L13.032 11.9136C12.5612 12.3261 11.9904 12.6271 11.3611 12.7748L11.7655 13.301C11.9286 13.5132 12.1858 13.6399 12.4535 13.6399C12.7453 13.6399 13.0157 13.4947 13.1769 13.2514C13.338 13.0081 13.3663 12.7025 13.2524 12.4338Z" fill="black"/>
<path fill-rule="evenodd" clip-rule="evenodd" d="M0.967992 11.9136L0.747601 12.4338C0.633797 12.7026 0.662043 13.0082 0.823179 13.2514C0.984316 13.4946 1.25475 13.6399 1.54656 13.6399C1.81425 13.6399 2.07142 13.5132 2.23461 13.3009L2.63891 12.7747C2.0096 12.6271 1.43877 12.3261 0.967992 11.9136Z" fill="black"/>
<path fill-rule="evenodd" clip-rule="evenodd" d="M5.00689 1.46779H4.96207C4.85136 0.640391 4.14135 0 3.28415 0H2.90642C1.97269 0 1.213 0.759664 1.213 1.69343V5.24038H2.03531V1.6934C2.03531 1.21308 2.4261 0.822281 2.90642 0.822281H3.28415C3.68646 0.822281 4.02577 1.09648 4.12546 1.46776H4.05904C3.40493 1.46776 2.87276 1.99992 2.87276 2.65404V3.34764C2.87276 3.56754 3.04555 3.74659 3.26268 3.75771C3.26977 3.75807 3.27674 3.75878 3.2839 3.75878H5.782C6.00906 3.75878 6.19314 3.5747 6.19314 3.34764V2.65407C6.19317 1.99995 5.66101 1.46779 5.00689 1.46779Z" fill="black"/>
<path fill-rule="evenodd" clip-rule="evenodd" d="M0.461594 8.46753V8.9893C0.461594 10.6797 1.83682 12.055 3.52724 12.055H10.4728C12.1632 12.055 13.5384 10.6797 13.5384 8.9893V8.46753H0.461594Z" fill="black"/>
<mask id="mask0_0_815" style="mask-type:luminance" maskUnits="userSpaceOnUse" x="0" y="6" width="14" height="2">
<path fill-rule="evenodd" clip-rule="evenodd" d="M0 6.4563H14V7.63924H0V6.4563Z" fill="white"/>
</mask>
<g mask="url(#mask0_0_815)">
<path fill-rule="evenodd" clip-rule="evenodd" d="M13.4086 6.4563H0.591445C0.265316 6.45633 0 6.72167 0 7.0478C0 7.37393 0.265316 7.63924 0.591445 7.63924H13.4086C13.7347 7.63924 14 7.37393 14 7.0478C14 6.72167 13.7347 6.4563 13.4086 6.4563Z" fill="black"/>
</g>
</svg>
