<svg width="14" height="9" viewBox="0 0 14 9" fill="none" xmlns="http://www.w3.org/2000/svg">
<path fill-rule="evenodd" clip-rule="evenodd" d="M12.14 4.17539H13.5231V2.93078C13.5231 2.67232 13.3123 2.46155 13.0538 2.46155H5.26308C5.28772 2.51232 5.3108 2.56309 5.33388 2.61539C5.49078 2.9877 5.57077 3.38309 5.57077 3.79078C5.57077 3.91999 5.56308 4.04924 5.54615 4.17539H12.14Z" fill="black"/>
<path fill-rule="evenodd" clip-rule="evenodd" d="M2.5523 1.31079C2.49999 1.31079 2.44922 1.31233 2.39845 1.31541V4.17387H4.10768H5.00153C5.02155 4.04771 5.03076 3.92002 5.03076 3.78925C5.03076 3.30002 4.88922 2.84465 4.64461 2.46156C4.20615 1.76925 3.4323 1.31079 2.5523 1.31079Z" fill="black"/>
<path fill-rule="evenodd" clip-rule="evenodd" d="M0.461538 8.50769H1.39846C1.65385 8.50769 1.86 8.30154 1.86 8.04615V6.57385H12.14V8.04615C12.14 8.30154 12.3462 8.50769 12.6015 8.50769H13.5385C13.7938 8.50769 14 8.30154 14 8.04615V5.17538C14 4.91998 13.7938 4.71385 13.5385 4.71385H12.14H1.86V1.40923V0.461538C1.86 0.206154 1.65385 0 1.39846 0H0.461538C0.206154 0 0 0.206154 0 0.461538V2.18V2.77231V4.80769V5.4V8.04615C0 8.3 0.206154 8.50769 0.461538 8.50769Z" fill="black"/>
</svg>
