<svg width="14" height="15" viewBox="0 0 14 15" fill="none" xmlns="http://www.w3.org/2000/svg">
<mask id="mask0_0_804" style="mask-type:luminance" maskUnits="userSpaceOnUse" x="0" y="0" width="14" height="6">
<path fill-rule="evenodd" clip-rule="evenodd" d="M0 0.318237H13.9675V5.8083H0V0.318237Z" fill="white"/>
</mask>
<g mask="url(#mask0_0_804)">
<path fill-rule="evenodd" clip-rule="evenodd" d="M13.6089 4.36175L7.77347 0.54961C7.2927 0.238428 6.67352 0.24161 6.19529 0.556292L0.353788 4.36493C-0.00862068 4.60388 -0.109166 5.09166 0.12947 5.45438C0.368425 5.81711 0.855879 5.91766 1.21924 5.67838L6.98979 1.91556L12.7537 5.68156C12.8863 5.76716 13.034 5.80756 13.1803 5.80756C13.439 5.80756 13.691 5.68125 13.8412 5.44897C14.0776 5.08434 13.9732 4.59816 13.6089 4.36175" fill="black"/>
</g>
<path fill-rule="evenodd" clip-rule="evenodd" d="M10.501 12.1267C9.96428 12.1267 9.529 11.6917 9.529 11.154C9.529 10.6169 9.96428 10.1816 10.501 10.1816C11.0381 10.1816 11.4737 10.6166 11.4737 11.154C11.4737 11.6917 11.0381 12.1267 10.501 12.1267V12.1267ZM3.70914 8.62602L3.82146 7.45574C3.90323 6.60493 4.60928 5.96411 5.46423 5.96411H5.63955V6.33192C5.63955 6.65106 5.89314 6.90529 6.21196 6.90529H7.75705C8.07587 6.90529 8.33391 6.65106 8.33391 6.33192V5.96442H8.50478C9.35973 5.96442 10.0658 6.60492 10.1472 7.45606L10.2599 8.62633L3.70914 8.62602ZM3.46668 12.1267C2.92991 12.1267 2.49464 11.6917 2.49464 11.154C2.49464 10.6169 2.92991 10.1816 3.46668 10.1816C4.00378 10.1816 4.43937 10.6166 4.43937 11.154C4.43937 11.6917 4.00378 12.1267 3.46668 12.1267V12.1267ZM12.133 9.10488C12.085 8.82965 11.8457 8.62602 11.5666 8.62602H11.2459L11.124 7.35742C10.9939 6.0007 9.86787 4.97424 8.50478 4.97424H5.46423C4.10082 4.97424 2.97509 6.00102 2.84464 7.35742L2.72309 8.62602H2.40205C2.12268 8.62602 1.88373 8.82965 1.83505 9.10488L1.35778 11.8107C1.29859 12.1461 1.39341 12.4913 1.61232 12.7516C1.82296 13.0023 2.13318 13.1518 2.45773 13.163V13.6122C2.45773 14.2483 2.96746 14.7606 3.60414 14.7606H3.96623C4.60228 14.7606 5.11964 14.2483 5.11964 13.6122V13.17H8.85255V13.6113C8.85255 14.2477 9.36578 14.7606 10.0018 14.7606H10.3642C11.0003 14.7606 11.5141 14.2477 11.5141 13.6113V13.163C11.8387 13.1518 12.147 13.0036 12.357 12.7532C12.5759 12.4919 12.6695 12.1486 12.6109 11.8129L12.133 9.10488Z" fill="black"/>
</svg>
